
<svg width="148px" height="145px" viewBox="0 0 148 145" version="1.1" xmlns="http://www.w3.org/2000/svg" xmlns:xlink="http://www.w3.org/1999/xlink">
  <g>
    <path d="M125.440259,2.09907825 L146.686662,22.7704489 L146.686662,6.22684865 C146.686662,4.7521801 146.578702,4.19311743 146.270583,3.6169857 C146.015169,3.13940232 145.646338,2.77057124 145.168754,2.51515685 C144.592623,2.20703823 144.03356,2.09907825 142.558891,2.09907825 L125.440259,2.09907825 Z" id="Path"></path>
    <path d="M125.440259,120.824831 L146.686662,141.496202 L146.686662,124.952601 C146.686662,123.477933 146.578702,122.91887 146.270583,122.342738 C146.015169,121.865155 145.646338,121.496324 145.168754,121.240909 C144.592623,120.932791 144.03356,120.824831 142.558891,120.824831 L125.440259,120.824831 Z" id="Path-Copy" transform="translate(135.332542, 131.844587) rotate(-270.000000) translate(-135.332542, -131.844587) "></path>
    <path d="M2.6269565,120.861409 L23.8733598,141.53278 L23.8733598,124.989179 C23.8733598,123.514511 23.7653999,122.955448 23.4572812,122.379316 C23.2018668,121.901733 22.8330358,121.532902 22.3554524,121.277488 C21.7793206,120.969369 21.220258,120.861409 19.7455894,120.861409 L2.6269565,120.861409 Z" id="Path-Copy-2" transform="translate(12.519240, 131.881165) rotate(-180.000000) translate(-12.519240, -131.881165) "></path>
    <path d="M2.6269565,2.13565639 L23.8733598,22.8070271 L23.8733598,6.26342679 C23.8733598,4.78875825 23.7653999,4.22969558 23.4572812,3.65356385 C23.2018668,3.17598047 22.8330358,2.80714938 22.3554524,2.551735 C21.7793206,2.24361638 21.220258,2.13565639 19.7455894,2.13565639 L2.6269565,2.13565639 Z" id="Path-Copy-3" transform="translate(12.519240, 13.155413) rotate(-450.000000) translate(-12.519240, -13.155413) "></path>
  </g>
</svg>
